# xmcd CD database file
#
# Track frame offsets:
#	150
#	12590
#	25197
#	43345
#	60532
#	83277
#	100362
#	114770
#	129597
#	145260
#	161842
#	179862
#
# Disc length: 2714 seconds
#
# Revision: 0
# Processed by: cddbd v1.5.2PL0 Copyright (c) Steve Scherf et al.
# Submitted via: CDex 1.51
#
DISCID=a10a980c
DTITLE=Michael Feinstein - Recorded live at the Regency
DYEAR=2000
DGENRE=Jazz
TTITLE0=I'll Take Romance
TTITLE1=Hooray for Love
TTITLE2=My Romance
TTITLE3=How About You
TTITLE4=Tea For Two
TTITLE5=Red, Hot and Blue
TTITLE6=Rhode Island Is Famous For You
TTITLE7=This Can't Be Love
TTITLE8=Rainbow 'Round My Shoulder
TTITLE9=After You've Gone
TTITLE10=Laura
TTITLE11=It All Depends On You
EXTD=YEAR: 2000
EXTT0=
EXTT1=
EXTT2=
EXTT3=
EXTT4=
EXTT5=
EXTT6=
EXTT7=
EXTT8=
EXTT9=
EXTT10=
EXTT11=
PLAYORDER=
